<svg xmlns="http://www.w3.org/2000/svg" viewBox="0 0 456.37 108"><defs><style>.cls-1{fill:#e76f51;}.cls-2{fill:#363636;}</style></defs><g id="Layer_2" data-name="Layer 2"><g id="Layer_1-2" data-name="Layer 1"><path class="cls-1" d="M83.43,8.72a54,54,0,0,0-58.86,0L54,38.15Z"/><path class="cls-1" d="M9.65,84.8a54,54,0,0,0,88.74,0A62.85,62.85,0,0,0,9.65,84.8Z"/><path class="cls-1" d="M90.48,14.19,60.26,44.41v0L54,50.68h0l-6.26-6.25,0,0L17.52,14.19A54,54,0,0,0,5.09,76.9a71.71,71.71,0,0,1,97.85-.06A54,54,0,0,0,90.48,14.19Z"/><path class="cls-2" d="M190.08,27.62c0,9-6.19,14.63-13.64,14.63a13.42,13.42,0,0,1-9.1-3.4V52.28h-7.07V13.64h7.12v2.74A13.33,13.33,0,0,1,176.44,13C183.89,13,190.08,18.63,190.08,27.62Zm-7,0c-.05-5.43-3.89-8.72-8.22-8.72A11.51,11.51,0,0,0,167.39,22l0,11.18a11.65,11.65,0,0,0,7.56,3.12C179.23,36.33,183.07,33,183.12,27.62Z"/><path class="cls-2" d="M216.54,13.64h7.07v28h-7.07V38.14a11.94,11.94,0,0,1-9,4.11c-5.92,0-10.24-3.84-10.24-11V13.64h7.12V30.36c0,3.72,2.14,5.81,5.42,5.81a8.66,8.66,0,0,0,6.74-3.79Z"/><path class="cls-2" d="M259.39,24V41.59h-7.07V24.88c0-3.73-2.19-5.81-5.48-5.81a8.71,8.71,0,0,0-6.74,3.78V41.59H233V13.64h7.06V17.1A12,12,0,0,1,249.15,13C255.06,13,259.39,16.82,259.39,24Z"/><path class="cls-2" d="M285.31,35.56v5.92a21.44,21.44,0,0,1-5.81.77c-8.71,0-11.45-6.36-11.45-12.82V9.7l6.35-4.06h.72v8h9.37v5.7h-9.37V29.48c0,3.89,1.86,6.69,5.8,6.69A16.39,16.39,0,0,0,285.31,35.56Z"/><path class="cls-2" d="M290.9,4.22a4.41,4.41,0,0,1,8.82,0,4.41,4.41,0,0,1-8.82,0Zm.87,37.37V13.64h7.07v28Z"/><path class="cls-2" d="M181.09,66.24h7.13v41.1h-7.13v-2.79a13.16,13.16,0,0,1-9,3.45c-7.45,0-13.7-5.64-13.7-14.63s6.25-14.63,13.7-14.63a13.16,13.16,0,0,1,9,3.45Zm0,32.72V87.78a11.33,11.33,0,0,0-7.5-3.12c-4.39,0-8.17,3.28-8.22,8.71s3.83,8.71,8.22,8.71A11.33,11.33,0,0,0,181.09,99Z"/><path class="cls-2" d="M195.56,84.22l4-15.24h7.78l-6.47,15.24Z"/><path class="cls-2" d="M212.71,70a4.41,4.41,0,1,1,4.38,4.22A4.26,4.26,0,0,1,212.71,70Zm.87,37.37V79.4h7.07v27.94Z"/><path class="cls-2" d="M256.43,89.75v17.59h-7.06V90.63c0-3.73-2.2-5.81-5.48-5.81a8.69,8.69,0,0,0-6.74,3.78v18.74h-7.07V79.4h7.07v3.45a12,12,0,0,1,9-4.11C252.1,78.74,256.43,82.57,256.43,89.75Z"/><path class="cls-2" d="M282.35,101.31v5.92a21.06,21.06,0,0,1-5.81.77c-8.71,0-11.45-6.36-11.45-12.82V75.45l6.35-4h.72v8h9.37v5.7h-9.37V95.23c0,3.89,1.86,6.69,5.81,6.69A16.31,16.31,0,0,0,282.35,101.31Z"/><path class="cls-2" d="M313.64,92.71a16.85,16.85,0,0,1-.11,1.75H293.2c.6,5.05,4,7.9,9,7.9a26.62,26.62,0,0,0,9.76-2.2v5.48A24.74,24.74,0,0,1,301.36,108c-9.48,0-14.85-6.41-14.85-14.85,0-9,6.08-14.41,14.14-14.41C309,78.74,313.69,84.6,313.64,92.71ZM293.53,90H307c-.5-3.51-2.74-5.64-6.36-5.64A7,7,0,0,0,293.53,90Z"/><path class="cls-2" d="M338.18,78.79v7.62a10.79,10.79,0,0,0-2.79-.33,11.87,11.87,0,0,0-7.29,2.41v18.85H321V79.4h7.07v4.82c2-2.8,5.43-5.48,9.15-5.48A4.87,4.87,0,0,1,338.18,78.79Z"/><path class="cls-2" d="M369.47,92.71a16.85,16.85,0,0,1-.11,1.75H349c.6,5.05,4,7.9,9,7.9a26.53,26.53,0,0,0,9.75-2.2v5.48A24.74,24.74,0,0,1,357.19,108c-9.47,0-14.84-6.41-14.84-14.85,0-9,6.08-14.41,14.13-14.41C364.87,78.74,369.52,84.6,369.47,92.71ZM349.36,90h13.48c-.49-3.51-2.74-5.64-6.36-5.64A7.06,7.06,0,0,0,349.36,90Z"/><path class="cls-2" d="M375.6,105.92v-5.76a20,20,0,0,0,9.26,2.36c2.47,0,5-1,5-3,0-1.54-1.2-2.36-2.9-2.8L382,95.4c-5-1.32-6.85-4.55-6.85-8.39,0-5.15,5-8.27,11.34-8.27a17.82,17.82,0,0,1,8.27,1.81v5.64a18.53,18.53,0,0,0-8.33-1.86c-2.3,0-4.32.82-4.32,2.85,0,1.42,1.15,2.24,2.95,2.74l4.55,1.31c5.7,1.54,7.18,4.77,7.18,8.39,0,5.69-5.26,8.38-11.84,8.38C381.47,108,377.36,107,375.6,105.92Z"/><path class="cls-2" d="M402.73,105.92v-5.76a19.94,19.94,0,0,0,9.26,2.36c2.46,0,5-1,5-3,0-1.54-1.2-2.36-2.9-2.8l-4.93-1.31c-5-1.32-6.85-4.55-6.85-8.39,0-5.15,5-8.27,11.34-8.27a17.86,17.86,0,0,1,8.28,1.81v5.64a18.58,18.58,0,0,0-8.33-1.86c-2.31,0-4.33.82-4.33,2.85,0,1.42,1.15,2.24,3,2.74l4.54,1.31c5.7,1.54,7.18,4.77,7.18,8.39,0,5.69-5.26,8.38-11.83,8.38C408.59,108,404.48,107,402.73,105.92Z"/><path class="cls-2" d="M456.37,92.71a14.47,14.47,0,0,1-.11,1.75H435.93c.6,5.05,4,7.9,9,7.9a26.53,26.53,0,0,0,9.75-2.2v5.48A24.73,24.73,0,0,1,444.1,108c-9.48,0-14.85-6.41-14.85-14.85,0-9,6.08-14.41,14.13-14.41C451.77,78.74,456.43,84.6,456.37,92.71ZM436.26,90h13.48c-.49-3.51-2.74-5.64-6.36-5.64A7.06,7.06,0,0,0,436.26,90Z"/></g></g></svg>